<?xml version="1.0" standalone="no"?>
<!DOCTYPE svg PUBLIC "-//W3C//DTD SVG 1.1//EN"
  "http://www.w3.org/Graphics/SVG/1.1/DTD/svg11.dtd">
<svg width="122mm" height="11mm" viewBox="156 -73 122 11" xmlns="http://www.w3.org/2000/svg" version="1.1">
	<title>svgOutput</title>
	<desc>made with tinkercad</desc>
<path d="M 277 -72 L 277 -69.00199890136719 L 277 -65.99800109863281 L 277 -63 L 157 -63 L 157 -65.99800109863281 L 167.0030059814453 -65.99800109863281 L 167.0030059814453 -69.00199890136719 L 157 -69.00199890136719 L 157 -72 L 277 -72 M 176.9980010986328 -69.00199890136719 L 176.9980010986328 -65.99800109863281 L 187.0030059814453 -65.99800109863281 L 187.0030059814453 -69.00199890136719 L 176.9980010986328 -69.00199890136719 M 227.0030059814453 -65.99800109863281 L 227.0030059814453 -69.00199890136719 L 216.9980010986328 -69.00199890136719 L 216.9980010986328 -65.99800109863281 L 227.0030059814453 -65.99800109863281 M 256.99798583984375 -69.00199890136719 L 256.99798583984375 -65.99800109863281 L 267.00299072265625 -65.99800109863281 L 267.00299072265625 -69.00199890136719 L 256.99798583984375 -69.00199890136719 M 207.0030059814453 -65.99800109863281 L 207.0030059814453 -69.00199890136719 L 196.9980010986328 -69.00199890136719 L 196.9980010986328 -65.99800109863281 L 207.0030059814453 -65.99800109863281 M 236.9980010986328 -69.00199890136719 L 236.9980010986328 -65.99800109863281 L 247.0030059814453 -65.99800109863281 L 247.0030059814453 -69.00199890136719 L 236.9980010986328 -69.00199890136719 z" fill="none" stroke="rgb(255,0,0)" stroke-width="0.001mm" />
</svg>