<?xml version="1.0" standalone="no"?>
<!DOCTYPE svg PUBLIC "-//W3C//DTD SVG 1.1//EN"
  "http://www.w3.org/Graphics/SVG/1.1/DTD/svg11.dtd">
<svg width="413.99798583984375mm" height="11mm" viewBox="-136 -43 413.99798583984375 11" xmlns="http://www.w3.org/2000/svg" version="1.1">
	<title>svgOutput</title>
	<desc>made with tinkercad</desc>
<path d="M 276.99798583984375 -35.99700164794922 L 276.99798583984375 -33 L 275.00201416015625 -33 L 265.00201416015625 -33 L 255.0019989013672 -33 L 245.0019989013672 -33 L 235.0019989013672 -33 L 225.0019989013672 -33 L 215.0019989013672 -33 L 205.0019989013672 -33 L 195.00100708007812 -33 L 185.00100708007812 -33 L 175.00100708007812 -33 L 165.00100708007812 -33 L 155.00100708007812 -33 L 153.9980010986328 -33 L 145.00100708007812 -33 L 135.00100708007812 -33 L 125.0009994506836 -33 L 115 -33 L 105 -33 L 95 -33 L 85 -33 L 75 -33 L 65 -33 L 55 -33 L 45 -33 L 34.999000549316406 -33 L 24.999000549316406 -33 L 14.99899959564209 -33 L 4.999000072479248 -33 L -5.000999927520752 -33 L -15.00100040435791 -33 L -25.000999450683594 -33 L -35.000999450683594 -33 L -45.00199890136719 -33 L -55.00199890136719 -33 L -65.00199890136719 -33 L -75.00199890136719 -33 L -85.00199890136719 -33 L -95.00199890136719 -33 L -105.00199890136719 -33 L -115.00199890136719 -33 L -125.00199890136719 -33 L -131.9980010986328 -33 L -131.9980010986328 -36.00299835205078 L -135 -36.00299835205078 L -135 -38.99700164794922 L -131.9980010986328 -38.99700164794922 L -131.9980010986328 -42 L -125.00199890136719 -42 L -115.00199890136719 -42 L -105.00199890136719 -42 L -95.00199890136719 -42 L -85.00199890136719 -42 L -75.00199890136719 -42 L -65.00199890136719 -42 L -55.00199890136719 -42 L -45.00199890136719 -42 L -35.000999450683594 -42 L -25.000999450683594 -42 L -15.00100040435791 -42 L -5.000999927520752 -42 L 4.999000072479248 -42 L 14.99899959564209 -42 L 24.999000549316406 -42 L 34.999000549316406 -42 L 45 -42 L 55 -42 L 65 -42 L 75 -42 L 85 -42 L 95 -42 L 105 -42 L 115 -42 L 125.0009994506836 -42 L 135.00100708007812 -42 L 145.00100708007812 -42 L 153.9980010986328 -42 L 155.00100708007812 -42 L 165.00100708007812 -42 L 175.00100708007812 -42 L 185.00100708007812 -42 L 195.00100708007812 -42 L 205.0019989013672 -42 L 215.0019989013672 -42 L 225.0019989013672 -42 L 235.0019989013672 -42 L 245.0019989013672 -42 L 255.0019989013672 -42 L 265.00201416015625 -42 L 275.00201416015625 -42 L 276.99798583984375 -42 L 276.99798583984375 -39.00299835205078 L 275.00201416015625 -39.00299835205078 L 275.00201416015625 -35.99700164794922 L 276.99798583984375 -35.99700164794922 M 85 -39.00299835205078 L 75 -39.00299835205078 L 75 -35.99700164794922 L 85 -35.99700164794922 L 85 -39.00299835205078 M 55 -35.99700164794922 L 65 -35.99700164794922 L 65 -39.00299835205078 L 55 -39.00299835205078 L 55 -35.99700164794922 M 105 -39.00299835205078 L 95 -39.00299835205078 L 95 -35.99700164794922 L 105 -35.99700164794922 L 105 -39.00299835205078 M 34.999000549316406 -35.99700164794922 L 45 -35.99700164794922 L 45 -39.00299835205078 L 34.999000549316406 -39.00299835205078 L 34.999000549316406 -35.99700164794922 M 125.0009994506836 -39.00299835205078 L 115 -39.00299835205078 L 115 -35.99700164794922 L 125.0009994506836 -35.99700164794922 L 125.0009994506836 -39.00299835205078 M 14.99899959564209 -35.99700164794922 L 24.999000549316406 -35.99700164794922 L 24.999000549316406 -39.00299835205078 L 14.99899959564209 -39.00299835205078 L 14.99899959564209 -35.99700164794922 M 145.00100708007812 -39.00299835205078 L 135.00100708007812 -39.00299835205078 L 135.00100708007812 -35.99700164794922 L 145.00100708007812 -35.99700164794922 L 145.00100708007812 -39.00299835205078 M -5.000999927520752 -35.99700164794922 L 4.999000072479248 -35.99700164794922 L 4.999000072479248 -39.00299835205078 L -5.000999927520752 -39.00299835205078 L -5.000999927520752 -35.99700164794922 M 165.00100708007812 -39.00299835205078 L 155.00100708007812 -39.00299835205078 L 153.9980010986328 -39.00299835205078 L 153.9980010986328 -35.99700164794922 L 155.00100708007812 -35.99700164794922 L 165.00100708007812 -35.99700164794922 L 165.00100708007812 -39.00299835205078 M -125.00199890136719 -39.00299835205078 L -125.00199890136719 -35.99700164794922 L -115.00199890136719 -35.99700164794922 L -115.00199890136719 -39.00299835205078 L -125.00199890136719 -39.00299835205078 M 175.00100708007812 -39.00299835205078 L 175.00100708007812 -35.99700164794922 L 185.00100708007812 -35.99700164794922 L 185.00100708007812 -39.00299835205078 L 175.00100708007812 -39.00299835205078 M -105.00199890136719 -39.00299835205078 L -105.00199890136719 -35.99700164794922 L -95.00199890136719 -35.99700164794922 L -95.00199890136719 -39.00299835205078 L -105.00199890136719 -39.00299835205078 M 195.00100708007812 -39.00299835205078 L 195.00100708007812 -35.99700164794922 L 205.0019989013672 -35.99700164794922 L 205.0019989013672 -39.00299835205078 L 195.00100708007812 -39.00299835205078 M -85.00199890136719 -39.00299835205078 L -85.00199890136719 -35.99700164794922 L -75.00199890136719 -35.99700164794922 L -75.00199890136719 -39.00299835205078 L -85.00199890136719 -39.00299835205078 M 215.0019989013672 -39.00299835205078 L 215.0019989013672 -35.99700164794922 L 225.0019989013672 -35.99700164794922 L 225.0019989013672 -39.00299835205078 L 215.0019989013672 -39.00299835205078 M -65.00199890136719 -39.00299835205078 L -65.00199890136719 -35.99700164794922 L -55.00199890136719 -35.99700164794922 L -55.00199890136719 -39.00299835205078 L -65.00199890136719 -39.00299835205078 M 235.0019989013672 -39.00299835205078 L 235.0019989013672 -35.99700164794922 L 245.0019989013672 -35.99700164794922 L 245.0019989013672 -39.00299835205078 L 235.0019989013672 -39.00299835205078 M -45.00199890136719 -39.00299835205078 L -45.00199890136719 -35.99700164794922 L -35.000999450683594 -35.99700164794922 L -35.000999450683594 -39.00299835205078 L -45.00199890136719 -39.00299835205078 M -25.000999450683594 -39.00299835205078 L -25.000999450683594 -35.99700164794922 L -15.00100040435791 -35.99700164794922 L -15.00100040435791 -39.00299835205078 L -25.000999450683594 -39.00299835205078 M 255.0019989013672 -39.00299835205078 L 255.0019989013672 -35.99700164794922 L 265.00201416015625 -35.99700164794922 L 265.00201416015625 -39.00299835205078 L 255.0019989013672 -39.00299835205078 z" fill="none" stroke="rgb(255,0,0)" stroke-width="0.001mm" />
</svg>