<?xml version="1.0" standalone="no"?>
<!DOCTYPE svg PUBLIC "-//W3C//DTD SVG 1.1//EN"
  "http://www.w3.org/Graphics/SVG/1.1/DTD/svg11.dtd">
<svg width="291mm" height="11mm" viewBox="-136 -63 291 11" xmlns="http://www.w3.org/2000/svg" version="1.1">
	<title>svgOutput</title>
	<desc>made with tinkercad</desc>
<path d="M 154 -53 L -131.9980010986328 -53 L -131.9980010986328 -55.99700164794922 L -131.9980010986328 -56.00299835205078 L -135 -56.00299835205078 L -135 -58.99700164794922 L -131.9980010986328 -58.99700164794922 L -131.9980010986328 -59.00299835205078 L -131.9980010986328 -62 L 145.00099182128906 -62 L 153.9860076904297 -59.00299835205078 L 154 -58.99833297729492 L 154 -55.99700164794922 L 154 -53 M -125.00299835205078 -56.00299835205078 L -125.00299835205078 -55.99700164794922 L -114.99800109863281 -55.99700164794922 L -114.99800109863281 -59.00299835205078 L -125.00299835205078 -59.00299835205078 L -125.00299835205078 -58.99700164794922 L -125.00299835205078 -56.00299835205078 M -105.00299835205078 -59.00299835205078 L -105.00299835205078 -55.99700164794922 L -94.99800109863281 -55.99700164794922 L -94.99800109863281 -59.00299835205078 L -105.00299835205078 -59.00299835205078 M -85.00299835205078 -59.00299835205078 L -85.00299835205078 -55.99700164794922 L -74.99800109863281 -55.99700164794922 L -74.99800109863281 -59.00299835205078 L -85.00299835205078 -59.00299835205078 M -65.00299835205078 -59.00299835205078 L -65.00299835205078 -55.99700164794922 L -54.99800109863281 -55.99700164794922 L -54.99800109863281 -59.00299835205078 L -65.00299835205078 -59.00299835205078 M -45.00299835205078 -59.00299835205078 L -45.00299835205078 -55.99700164794922 L -34.99800109863281 -55.99700164794922 L -34.99800109863281 -59.00299835205078 L -45.00299835205078 -59.00299835205078 M -25.003000259399414 -59.00299835205078 L -25.003000259399414 -55.99700164794922 L -14.998000144958496 -55.99700164794922 L -14.998000144958496 -59.00299835205078 L -25.003000259399414 -59.00299835205078 M -5.002999782562256 -59.00299835205078 L -5.002999782562256 -55.99700164794922 L 5.001999855041504 -55.99700164794922 L 5.001999855041504 -59.00299835205078 L -5.002999782562256 -59.00299835205078 M 14.998000144958496 -59.00299835205078 L 14.998000144958496 -55.99700164794922 L 25.003000259399414 -55.99700164794922 L 25.003000259399414 -59.00299835205078 L 14.998000144958496 -59.00299835205078 M 34.99800109863281 -59.00299835205078 L 34.99800109863281 -55.99700164794922 L 45.00299835205078 -55.99700164794922 L 45.00299835205078 -59.00299835205078 L 34.99800109863281 -59.00299835205078 M 114.99800109863281 -59.00299835205078 L 114.99800109863281 -55.99700164794922 L 125.00299835205078 -55.99700164794922 L 125.00299835205078 -59.00299835205078 L 114.99800109863281 -59.00299835205078 M 85.00299835205078 -55.99700164794922 L 85.00299835205078 -59.00299835205078 L 74.99800109863281 -59.00299835205078 L 74.99800109863281 -55.99700164794922 L 85.00299835205078 -55.99700164794922 M 105.00299835205078 -55.99700164794922 L 105.00299835205078 -59.00299835205078 L 94.99800109863281 -59.00299835205078 L 94.99800109863281 -55.99700164794922 L 105.00299835205078 -55.99700164794922 M 54.99800109863281 -59.00299835205078 L 54.99800109863281 -55.99700164794922 L 65.00299835205078 -55.99700164794922 L 65.00299835205078 -59.00299835205078 L 54.99800109863281 -59.00299835205078 M 134.9980010986328 -59.00299835205078 L 134.9980010986328 -55.99700164794922 L 145.0030059814453 -55.99700164794922 L 145.0030059814453 -59.00299835205078 L 134.9980010986328 -59.00299835205078 z" fill="none" stroke="rgb(255,0,0)" stroke-width="0.001mm" />
</svg>