<?xml version="1.0" standalone="no"?>
<!DOCTYPE svg PUBLIC "-//W3C//DTD SVG 1.1//EN"
  "http://www.w3.org/Graphics/SVG/1.1/DTD/svg11.dtd">
<svg width="417mm" height="128mm" viewBox="-136 -21 417 128" xmlns="http://www.w3.org/2000/svg" version="1.1">
	<title>svgOutput</title>
	<desc>made with tinkercad</desc>
<path d="M -135 36 L -131.9980010986328 36 L -131.9980010986328 25.999000549316406 L -135 25.999000549316406 L -135 15.99899959564209 L -131.9980010986328 15.99899959564209 L -131.9980010986328 5.998000144958496 L -135 5.998000144958496 L -135 -4.001999855041504 L -131.9980010986328 -4.001999855041504 L -131.9980010986328 -14.001999855041504 L -135 -14.001999855041504 L -135 -16.99799919128418 L -125.00199890136719 -16.99799919128418 L -125.00199890136719 -20 L -115.00199890136719 -20 L -115.00199890136719 -16.99799919128418 L -105.00199890136719 -16.99799919128418 L -105.00199890136719 -20 L -95.00199890136719 -20 L -95.00199890136719 -16.99799919128418 L -85.00199890136719 -16.99799919128418 L -85.00199890136719 -20 L -75.00199890136719 -20 L -75.00199890136719 -16.99799919128418 L -65.00199890136719 -16.99799919128418 L -65.00199890136719 -20 L -55.00199890136719 -20 L -55.00199890136719 -16.99799919128418 L -45.000999450683594 -16.99799919128418 L -45.000999450683594 -20 L -35.000999450683594 -20 L -35.000999450683594 -16.99799919128418 L -25.000999450683594 -16.99799919128418 L -25.000999450683594 -20 L -15.00100040435791 -20 L -15.00100040435791 -16.99799919128418 L -5.000999927520752 -16.99799919128418 L -5.000999927520752 -20 L 4.999000072479248 -20 L 4.999000072479248 -16.99799919128418 L 14.99899959564209 -16.99799919128418 L 14.99899959564209 -20 L 24.999000549316406 -20 L 24.999000549316406 -16.99799919128418 L 35 -16.99799919128418 L 35 -20 L 45 -20 L 45 -16.99799919128418 L 55 -16.99799919128418 L 55 -20 L 65 -20 L 65 -16.99799919128418 L 75 -16.99799919128418 L 75 -20 L 85 -20 L 85 -16.99799919128418 L 95 -16.99799919128418 L 95 -20 L 105 -20 L 105 -16.99799919128418 L 115.0009994506836 -16.99799919128418 L 115.0009994506836 -20 L 125.0009994506836 -20 L 125.0009994506836 -16.99799919128418 L 135.00100708007812 -16.99799919128418 L 135.00100708007812 -20 L 145.00100708007812 -20 L 145.00100708007812 -16.99799919128418 L 153.9980010986328 -16.99799919128418 L 153.9980010986328 -14.001999855041504 L 155.00100708007812 -14.001999855041504 L 157.0030059814453 -14.001999855041504 L 157.0030059814453 -20 L 165.00100708007812 -20 L 165.00100708007812 -16.99799919128418 L 175.00100708007812 -16.99799919128418 L 175.00100708007812 -20 L 185.00100708007812 -20 L 185.00100708007812 -16.99799919128418 L 195.0019989013672 -16.99799919128418 L 195.0019989013672 -20 L 205.0019989013672 -20 L 205.0019989013672 -16.99799919128418 L 215.0019989013672 -16.99799919128418 L 215.0019989013672 -20 L 225.0019989013672 -20 L 225.0019989013672 -16.99799919128418 L 235.0019989013672 -16.99799919128418 L 235.0019989013672 -20 L 245.0019989013672 -20 L 245.0019989013672 -16.99799919128418 L 255.0019989013672 -16.99799919128418 L 255.0019989013672 -20 L 265.00201416015625 -20 L 265.00201416015625 -16.99799919128418 L 275.00299072265625 -16.99799919128418 L 275.00299072265625 -20 L 280 -20 L 280 -14.001999855041504 L 276.99798583984375 -14.001999855041504 L 276.99798583984375 -4.001999855041504 L 280 -4.001999855041504 L 280 5.998000144958496 L 276.99798583984375 5.998000144958496 L 276.99798583984375 15.99899959564209 L 280 15.99899959564209 L 280 25.999000549316406 L 276.99798583984375 25.999000549316406 L 276.99798583984375 36 L 280 36 L 280 46 L 276.99798583984375 46 L 276.99798583984375 56.000999450683594 L 280 56.000999450683594 L 280 66.0009994506836 L 276.99798583984375 66.0009994506836 L 276.99798583984375 76.00199890136719 L 280 76.00199890136719 L 280 86.00199890136719 L 276.99798583984375 86.00199890136719 L 276.99798583984375 96.00299835205078 L 280 96.00299835205078 L 280 106 L 275.00299072265625 106 L 275.00299072265625 102.99800109863281 L 265.00201416015625 102.99800109863281 L 265.00201416015625 106 L 255.0019989013672 106 L 255.0019989013672 102.99800109863281 L 245.0019989013672 102.99800109863281 L 245.0019989013672 106 L 235.0019989013672 106 L 235.0019989013672 102.99800109863281 L 225.0019989013672 102.99800109863281 L 225.0019989013672 106 L 215.0019989013672 106 L 215.0019989013672 102.99800109863281 L 205.0019989013672 102.99800109863281 L 205.0019989013672 106 L 195.0019989013672 106 L 195.0019989013672 102.99800109863281 L 185.00100708007812 102.99800109863281 L 185.00100708007812 106 L 175.00100708007812 106 L 175.00100708007812 102.99800109863281 L 165.00100708007812 102.99800109863281 L 165.00100708007812 106 L 157.0030059814453 106 L 157.0030059814453 96.00199890136719 L 155.00100708007812 96.00199890136719 L 153.9980010986328 96.00199890136719 L 153.9980010986328 102.99800109863281 L 145.00100708007812 102.99800109863281 L 145.00100708007812 106 L 135.00100708007812 106 L 135.00100708007812 102.99800109863281 L 125.0009994506836 102.99800109863281 L 125.0009994506836 106 L 115.0009994506836 106 L 115.0009994506836 102.99800109863281 L 105 102.99800109863281 L 105 106 L 95 106 L 95 102.99800109863281 L 85 102.99800109863281 L 85 106 L 75 106 L 75 102.99800109863281 L 65 102.99800109863281 L 65 106 L 55 106 L 55 102.99800109863281 L 45 102.99800109863281 L 45 106 L 35 106 L 35 102.99800109863281 L 24.999000549316406 102.99800109863281 L 24.999000549316406 106 L 14.99899959564209 106 L 14.99899959564209 102.99800109863281 L 4.999000072479248 102.99800109863281 L 4.999000072479248 106 L -5.000999927520752 106 L -5.000999927520752 102.99800109863281 L -15.00100040435791 102.99800109863281 L -15.00100040435791 106 L -25.000999450683594 106 L -25.000999450683594 102.99800109863281 L -35.000999450683594 102.99800109863281 L -35.000999450683594 106 L -45.000999450683594 106 L -45.000999450683594 102.99800109863281 L -55.00199890136719 102.99800109863281 L -55.00199890136719 106 L -65.00199890136719 106 L -65.00199890136719 102.99800109863281 L -75.00199890136719 102.99800109863281 L -75.00199890136719 106 L -85.00199890136719 106 L -85.00199890136719 102.99800109863281 L -95.00199890136719 102.99800109863281 L -95.00199890136719 106 L -105.00199890136719 106 L -105.00199890136719 102.99800109863281 L -115.00199890136719 102.99800109863281 L -115.00199890136719 106 L -125.00199890136719 106 L -125.00199890136719 102.99800109863281 L -135 102.99800109863281 L -135 96.00299835205078 L -131.9980010986328 96.00299835205078 L -131.9980010986328 86.00199890136719 L -135 86.00199890136719 L -135 76.00199890136719 L -131.9980010986328 76.00199890136719 L -131.9980010986328 66.0009994506836 L -135 66.0009994506836 L -135 56.000999450683594 L -131.9980010986328 56.000999450683594 L -131.9980010986328 46 L -135 46 L -135 36 M 155.00100708007812 66.0009994506836 L 157.0030059814453 66.0009994506836 L 157.0030059814453 56.000999450683594 L 155.00100708007812 56.000999450683594 L 153.9980010986328 56.000999450683594 L 153.9980010986328 66.0009994506836 L 155.00100708007812 66.0009994506836 M 153.9980010986328 46 L 155.00100708007812 46 L 157.0030059814453 46 L 157.0030059814453 36 L 155.00100708007812 36 L 153.9980010986328 36 L 153.9980010986328 46 M 153.9980010986328 15.99899959564209 L 153.9980010986328 25.999000549316406 L 155.00100708007812 25.999000549316406 L 157.0030059814453 25.999000549316406 L 157.0030059814453 15.99899959564209 L 155.00100708007812 15.99899959564209 L 153.9980010986328 15.99899959564209 M 155.00100708007812 5.999000072479248 L 157.0030059814453 5.999000072479248 L 157.0030059814453 -4.001999855041504 L 155.00100708007812 -4.001999855041504 L 153.9980010986328 -4.001999855041504 L 153.9980010986328 5.999000072479248 L 155.00100708007812 5.999000072479248 M 157.0030059814453 86.00199890136719 L 157.0030059814453 76.0009994506836 L 155.00100708007812 76.0009994506836 L 153.9980010986328 76.0009994506836 L 153.9980010986328 86.00199890136719 L 155.00100708007812 86.00199890136719 L 157.0030059814453 86.00199890136719 z" fill="none" stroke="rgb(255,0,0)" stroke-width="0.001mm" />
</svg>