<?xml version="1.0" standalone="no"?>
<!DOCTYPE svg PUBLIC "-//W3C//DTD SVG 1.1//EN"
  "http://www.w3.org/Graphics/SVG/1.1/DTD/svg11.dtd">
<svg width="413.99798583984375mm" height="11mm" viewBox="-136 127 413.99798583984375 11" xmlns="http://www.w3.org/2000/svg" version="1.1">
	<title>svgOutput</title>
	<desc>made with tinkercad</desc>
<path d="M 276.99798583984375 128 L 276.99798583984375 130.9980010986328 L 275.00201416015625 130.9980010986328 L 275.00201416015625 134.0030059814453 L 276.99798583984375 134.0030059814453 L 276.99798583984375 137 L 275.00201416015625 137 L 265.00201416015625 137 L 255.0019989013672 137 L 245.0019989013672 137 L 235.0019989013672 137 L 225.0019989013672 137 L 215.0019989013672 137 L 205.0019989013672 137 L 195.00100708007812 137 L 185.00100708007812 137 L 175.00100708007812 137 L 165.00100708007812 137 L 155.00100708007812 137 L 153.9980010986328 137 L 145.00100708007812 137 L 135.00100708007812 137 L 125.0009994506836 137 L 115 137 L 105 137 L 95 137 L 85 137 L 75 137 L 65 137 L 55 137 L 45 137 L 34.999000549316406 137 L 24.999000549316406 137 L 14.99899959564209 137 L 4.999000072479248 137 L -5.000999927520752 137 L -15.00100040435791 137 L -25.000999450683594 137 L -35.000999450683594 137 L -45.00199890136719 137 L -55.00199890136719 137 L -65.00199890136719 137 L -75.00199890136719 137 L -85.00199890136719 137 L -95.00199890136719 137 L -105.00199890136719 137 L -115.00199890136719 137 L -125.00199890136719 137 L -131.9980010986328 137 L -131.9980010986328 133.9980010986328 L -135 133.9980010986328 L -135 131.0030059814453 L -131.9980010986328 131.0030059814453 L -131.9980010986328 128 L -125.00199890136719 128 L -115.00199890136719 128 L -105.00199890136719 128 L -95.00199890136719 128 L -85.00199890136719 128 L -75.00199890136719 128 L -65.00199890136719 128 L -55.00199890136719 128 L -45.00199890136719 128 L -35.000999450683594 128 L -25.000999450683594 128 L -15.00100040435791 128 L -5.000999927520752 128 L 4.999000072479248 128 L 14.99899959564209 128 L 24.999000549316406 128 L 34.999000549316406 128 L 45 128 L 55 128 L 65 128 L 75 128 L 85 128 L 95 128 L 105 128 L 115 128 L 125.0009994506836 128 L 135.00100708007812 128 L 145.00100708007812 128 L 153.9980010986328 128 L 155.00100708007812 128 L 165.00100708007812 128 L 175.00100708007812 128 L 185.00100708007812 128 L 195.00100708007812 128 L 205.0019989013672 128 L 215.0019989013672 128 L 225.0019989013672 128 L 235.0019989013672 128 L 245.0019989013672 128 L 255.0019989013672 128 L 265.00201416015625 128 L 275.00201416015625 128 L 276.99798583984375 128 M 65 130.9980010986328 L 55 130.9980010986328 L 55 134.0030059814453 L 65 134.0030059814453 L 65 130.9980010986328 M 75 134.0030059814453 L 85 134.0030059814453 L 85 130.9980010986328 L 75 130.9980010986328 L 75 134.0030059814453 M 45 130.9980010986328 L 34.999000549316406 130.9980010986328 L 34.999000549316406 134.0030059814453 L 45 134.0030059814453 L 45 130.9980010986328 M 95 134.0030059814453 L 105 134.0030059814453 L 105 130.9980010986328 L 95 130.9980010986328 L 95 134.0030059814453 M 24.999000549316406 130.9980010986328 L 14.99899959564209 130.9980010986328 L 14.99899959564209 134.0030059814453 L 24.999000549316406 134.0030059814453 L 24.999000549316406 130.9980010986328 M 115 134.0030059814453 L 125.0009994506836 134.0030059814453 L 125.0009994506836 130.9980010986328 L 115 130.9980010986328 L 115 134.0030059814453 M 4.999000072479248 130.9980010986328 L -5.000999927520752 130.9980010986328 L -5.000999927520752 134.0030059814453 L 4.999000072479248 134.0030059814453 L 4.999000072479248 130.9980010986328 M 135.00100708007812 134.0030059814453 L 145.00100708007812 134.0030059814453 L 145.00100708007812 130.9980010986328 L 135.00100708007812 130.9980010986328 L 135.00100708007812 134.0030059814453 M -15.00100040435791 130.9980010986328 L -25.000999450683594 130.9980010986328 L -25.000999450683594 134.0030059814453 L -15.00100040435791 134.0030059814453 L -15.00100040435791 130.9980010986328 M 155.00100708007812 134.0030059814453 L 165.00100708007812 134.0030059814453 L 165.00100708007812 130.9980010986328 L 155.00100708007812 130.9980010986328 L 153.9980010986328 130.9980010986328 L 153.9980010986328 134.0030059814453 L 155.00100708007812 134.0030059814453 M -45.00199890136719 130.9980010986328 L -45.00199890136719 134.0030059814453 L -35.000999450683594 134.0030059814453 L -35.000999450683594 130.9980010986328 L -45.00199890136719 130.9980010986328 M 255.0019989013672 130.9980010986328 L 255.0019989013672 134.0030059814453 L 265.00201416015625 134.0030059814453 L 265.00201416015625 130.9980010986328 L 255.0019989013672 130.9980010986328 M -65.00199890136719 130.9980010986328 L -65.00199890136719 134.0030059814453 L -55.00199890136719 134.0030059814453 L -55.00199890136719 130.9980010986328 L -65.00199890136719 130.9980010986328 M 235.0019989013672 130.9980010986328 L 235.0019989013672 134.0030059814453 L 245.0019989013672 134.0030059814453 L 245.0019989013672 130.9980010986328 L 235.0019989013672 130.9980010986328 M -85.00199890136719 130.9980010986328 L -85.00199890136719 134.0030059814453 L -75.00199890136719 134.0030059814453 L -75.00199890136719 130.9980010986328 L -85.00199890136719 130.9980010986328 M 215.0019989013672 130.9980010986328 L 215.0019989013672 134.0030059814453 L 225.0019989013672 134.0030059814453 L 225.0019989013672 130.9980010986328 L 215.0019989013672 130.9980010986328 M -105.00199890136719 130.9980010986328 L -105.00199890136719 134.0030059814453 L -95.00199890136719 134.0030059814453 L -95.00199890136719 130.9980010986328 L -105.00199890136719 130.9980010986328 M 195.00100708007812 130.9980010986328 L 195.00100708007812 134.0030059814453 L 205.0019989013672 134.0030059814453 L 205.0019989013672 130.9980010986328 L 195.00100708007812 130.9980010986328 M 175.00100708007812 130.9980010986328 L 175.00100708007812 134.0030059814453 L 185.00100708007812 134.0030059814453 L 185.00100708007812 130.9980010986328 L 175.00100708007812 130.9980010986328 M -125.00199890136719 130.9980010986328 L -125.00199890136719 134.0030059814453 L -115.00199890136719 134.0030059814453 L -115.00199890136719 130.9980010986328 L -125.00199890136719 130.9980010986328 z" fill="none" stroke="rgb(255,0,0)" stroke-width="0.001mm" />
</svg>