<?xml version="1.0" standalone="no"?>
<!DOCTYPE svg PUBLIC "-//W3C//DTD SVG 1.1//EN"
  "http://www.w3.org/Graphics/SVG/1.1/DTD/svg11.dtd">
<svg width="11mm" height="128mm" viewBox="-161 -21 11 128" xmlns="http://www.w3.org/2000/svg" version="1.1">
	<title>svgOutput</title>
	<desc>made with tinkercad</desc>
<path d="M -151 106 L -153.9980010986328 106 L -153.9980010986328 96.00199890136719 L -157.0030059814453 96.00199890136719 L -157.0030059814453 106 L -160 106 L -160 96.00199890136719 L -160 86.00199890136719 L -160 76.0009994506836 L -160 66.0009994506836 L -160 56.000999450683594 L -160 46 L -160 36 L -160 25.999000549316406 L -160 15.99899959564209 L -160 5.999000072479248 L -160 -4.001999855041504 L -160 -14.001999855041504 L -160 -20 L -157.0030059814453 -20 L -157.0030059814453 -14.001999855041504 L -153.9980010986328 -14.001999855041504 L -153.9980010986328 -20 L -151 -20 L -151 -14.001999855041504 L -151 -4.001999855041504 L -151 5.999000072479248 L -151 15.99899959564209 L -151 25.999000549316406 L -151 36 L -151 46 L -151 56.000999450683594 L -151 66.0009994506836 L -151 76.0009994506836 L -151 86.00199890136719 L -151 96.00199890136719 L -151 106 M -153.9980010986328 76.0009994506836 L -157.0030059814453 76.0009994506836 L -157.0030059814453 86.00199890136719 L -153.9980010986328 86.00199890136719 L -153.9980010986328 76.0009994506836 M -153.9980010986328 15.99899959564209 L -157.0030059814453 15.99899959564209 L -157.0030059814453 25.999000549316406 L -153.9980010986328 25.999000549316406 L -153.9980010986328 15.99899959564209 M -153.9980010986328 56.000999450683594 L -157.0030059814453 56.000999450683594 L -157.0030059814453 66.0009994506836 L -153.9980010986328 66.0009994506836 L -153.9980010986328 56.000999450683594 M -153.9980010986328 36 L -157.0030059814453 36 L -157.0030059814453 46 L -153.9980010986328 46 L -153.9980010986328 36 M -153.9980010986328 -4.001999855041504 L -157.0030059814453 -4.001999855041504 L -157.0030059814453 5.999000072479248 L -153.9980010986328 5.999000072479248 L -153.9980010986328 -4.001999855041504 z" fill="none" stroke="rgb(255,0,0)" stroke-width="0.001mm" />
</svg>