<?xml version="1.0" standalone="no"?>
<!DOCTYPE svg PUBLIC "-//W3C//DTD SVG 1.1//EN"
  "http://www.w3.org/Graphics/SVG/1.1/DTD/svg11.dtd">
<svg width="8mm" height="128mm" viewBox="293 -21 8 128" xmlns="http://www.w3.org/2000/svg" version="1.1">
	<title>svgOutput</title>
	<desc>made with tinkercad</desc>
<path d="M 300 -14.001999855041504 L 297.00299072265625 -14.001999855041504 L 296.99798583984375 -14.001999855041504 L 296.99798583984375 -4.001999855041504 L 297.00299072265625 -4.001999855041504 L 300 -4.001999855041504 L 300 5.998000144958496 L 297.00299072265625 5.998000144958496 L 296.99798583984375 5.998000144958496 L 296.99798583984375 15.99899959564209 L 297.00299072265625 15.99899959564209 L 300 15.99899959564209 L 300 25.999000549316406 L 297.00299072265625 25.999000549316406 L 296.99798583984375 25.999000549316406 L 296.99798583984375 36 L 297.00299072265625 36 L 300 36 L 300 46 L 297.00299072265625 46 L 296.99798583984375 46 L 296.99798583984375 56.000999450683594 L 297.00299072265625 56.000999450683594 L 300 56.000999450683594 L 300 66.0009994506836 L 297.00299072265625 66.0009994506836 L 296.99798583984375 66.0009994506836 L 296.99798583984375 76.00199890136719 L 297.00299072265625 76.00199890136719 L 300 76.00199890136719 L 300 86.00199890136719 L 297.00299072265625 86.00199890136719 L 296.99798583984375 86.00199890136719 L 296.99798583984375 96.00299835205078 L 297.00299072265625 96.00299835205078 L 300 96.00299835205078 L 300 106 L 297.00299072265625 106 L 297.00299072265625 102.99800109863281 L 294 102.99800109863281 L 294 96.00299835205078 L 294 86.00199890136719 L 294 76.00199890136719 L 294 66.0009994506836 L 294 56.000999450683594 L 294 46 L 294 36 L 294 25.999000549316406 L 294 15.99899959564209 L 294 5.998000144958496 L 294 -4.001999855041504 L 294 -14.001999855041504 L 294 -16.99799919128418 L 297.00299072265625 -16.99799919128418 L 297.00299072265625 -20 L 300 -20 L 300 -14.001999855041504 z" fill="none" stroke="rgb(255,0,0)" stroke-width="0.001mm" />
</svg>