<?xml version="1.0" standalone="no"?>
<!DOCTYPE svg PUBLIC "-//W3C//DTD SVG 1.1//EN"
  "http://www.w3.org/Graphics/SVG/1.1/DTD/svg11.dtd">
<svg width="11mm" height="155mm" viewBox="287 -48 11 155" xmlns="http://www.w3.org/2000/svg" version="1.1">
	<title>svgOutput</title>
	<desc>made with tinkercad</desc>
<path d="M 294 45.99800109863281 L 291.00299072265625 45.99800109863281 L 290.99798583984375 45.99800109863281 L 290.99798583984375 56.00299835205078 L 291.00299072265625 56.00299835205078 L 294 56.00299835205078 L 294 65.99800109863281 L 291.00299072265625 65.99800109863281 L 290.99798583984375 65.99800109863281 L 290.99798583984375 76.00299835205078 L 291.00299072265625 76.00299835205078 L 294 76.00299835205078 L 294 85.99800109863281 L 291.00299072265625 85.99800109863281 L 290.99798583984375 85.99800109863281 L 290.99798583984375 96.00299835205078 L 291.00299072265625 96.00299835205078 L 294 96.00299835205078 L 294 106 L 291.00299072265625 106 L 291.00299072265625 102.99800109863281 L 290.99798583984375 102.99800109863281 L 288 102.99800109863281 L 288 -47 L 290.99798583984375 -47 L 291.00299072265625 -47 L 294 -47 L 297 -47 L 297 -44 L 294 -34 L 294 -34.00299835205078 L 291.00299072265625 -34.00299835205078 L 290.99798583984375 -34.00299835205078 L 290.99798583984375 -23.99799919128418 L 291.00299072265625 -23.99799919128418 L 294 -23.99799919128418 L 294 -14.003000259399414 L 291.00299072265625 -14.003000259399414 L 290.99798583984375 -14.003000259399414 L 290.99798583984375 -3.997999906539917 L 291.00299072265625 -3.997999906539917 L 294 -3.997999906539917 L 294 5.998000144958496 L 291.00299072265625 5.998000144958496 L 290.99798583984375 5.998000144958496 L 290.99798583984375 16.003000259399414 L 291.00299072265625 16.003000259399414 L 294 16.003000259399414 L 294 25.99799919128418 L 291.00299072265625 25.99799919128418 L 290.99798583984375 25.99799919128418 L 290.99798583984375 36.00299835205078 L 291.00299072265625 36.00299835205078 L 294 36.00299835205078 L 294 45.99800109863281 z" fill="none" stroke="rgb(255,0,0)" stroke-width="0.001mm" />
</svg>