<?xml version="1.0" standalone="no"?>
<!DOCTYPE svg PUBLIC "-//W3C//DTD SVG 1.1//EN"
  "http://www.w3.org/Graphics/SVG/1.1/DTD/svg11.dtd">
<svg width="11mm" height="155mm" viewBox="303 -48 11 155" xmlns="http://www.w3.org/2000/svg" version="1.1">
	<title>svgOutput</title>
	<desc>made with tinkercad</desc>
<path d="M 313 106 L 310.00299072265625 106 L 310.00299072265625 95.99800109863281 L 306.99798583984375 95.99800109863281 L 306.99798583984375 106 L 304 106 L 304 -47 L 306.99798583984375 -47 L 306.99798583984375 -33.99800109863281 L 310.00299072265625 -33.99800109863281 L 310.00299072265625 -47 L 313 -47 L 313 106 M 310.00299072265625 -24.003000259399414 L 306.99798583984375 -24.003000259399414 L 306.99798583984375 -13.998000144958496 L 310.00299072265625 -13.998000144958496 L 310.00299072265625 -24.003000259399414 M 306.99798583984375 86.00299835205078 L 310.00299072265625 86.00299835205078 L 310.00299072265625 75.99800109863281 L 306.99798583984375 75.99800109863281 L 306.99798583984375 86.00299835205078 M 306.99798583984375 66.00299835205078 L 310.00299072265625 66.00299835205078 L 310.00299072265625 55.99800109863281 L 306.99798583984375 55.99800109863281 L 306.99798583984375 66.00299835205078 M 306.99798583984375 46.00299835205078 L 310.00299072265625 46.00299835205078 L 310.00299072265625 35.99800109863281 L 306.99798583984375 35.99800109863281 L 306.99798583984375 46.00299835205078 M 310.00299072265625 -4.00237512588501 L 306.99798583984375 -4.00237512588501 L 306.99798583984375 6.002624988555908 L 310.00299072265625 6.002624988555908 L 310.00299072265625 -4.00237512588501 M 310.00299072265625 15.998000144958496 L 306.99798583984375 15.998000144958496 L 306.99798583984375 26.003000259399414 L 310.00299072265625 26.003000259399414 L 310.00299072265625 15.998000144958496 z" fill="none" stroke="rgb(255,0,0)" stroke-width="0.001mm" />
</svg>