<?xml version="1.0" standalone="no"?>
<!DOCTYPE svg PUBLIC "-//W3C//DTD SVG 1.1//EN"
  "http://www.w3.org/Graphics/SVG/1.1/DTD/svg11.dtd">
<svg width="11mm" height="128mm" viewBox="317 -21 11 128" xmlns="http://www.w3.org/2000/svg" version="1.1">
	<title>svgOutput</title>
	<desc>made with tinkercad</desc>
<path d="M 327 106 L 324.00299072265625 106 L 324.00299072265625 96.00199890136719 L 320.99798583984375 96.00199890136719 L 320.99798583984375 106 L 318 106 L 318 96.00199890136719 L 318 86.00199890136719 L 318 76.0009994506836 L 318 66.0009994506836 L 318 56.000999450683594 L 318 46 L 318 36 L 318 25.999000549316406 L 318 15.99899959564209 L 318 5.999000072479248 L 318 -4.001999855041504 L 318 -14.001999855041504 L 318 -20 L 320.99798583984375 -20 L 320.99798583984375 -14.001999855041504 L 324.00299072265625 -14.001999855041504 L 324.00299072265625 -20 L 327 -20 L 327 -14.001999855041504 L 327 -4.001999855041504 L 327 5.999000072479248 L 327 15.99899959564209 L 327 25.999000549316406 L 327 36 L 327 46 L 327 56.000999450683594 L 327 66.0009994506836 L 327 76.0009994506836 L 327 86.00199890136719 L 327 96.00199890136719 L 327 106 M 324.00299072265625 76.0009994506836 L 320.99798583984375 76.0009994506836 L 320.99798583984375 86.00199890136719 L 324.00299072265625 86.00199890136719 L 324.00299072265625 76.0009994506836 M 324.00299072265625 15.99899959564209 L 320.99798583984375 15.99899959564209 L 320.99798583984375 25.999000549316406 L 324.00299072265625 25.999000549316406 L 324.00299072265625 15.99899959564209 M 324.00299072265625 56.000999450683594 L 320.99798583984375 56.000999450683594 L 320.99798583984375 66.0009994506836 L 324.00299072265625 66.0009994506836 L 324.00299072265625 56.000999450683594 M 324.00299072265625 36 L 320.99798583984375 36 L 320.99798583984375 46 L 324.00299072265625 46 L 324.00299072265625 36 M 324.00299072265625 -4.001999855041504 L 320.99798583984375 -4.001999855041504 L 320.99798583984375 5.999000072479248 L 324.00299072265625 5.999000072479248 L 324.00299072265625 -4.001999855041504 z" fill="none" stroke="rgb(255,0,0)" stroke-width="0.001mm" />
</svg>